<?xml version="1.0" encoding="utf-8" ?>
<svg xmlns="http://www.w3.org/2000/svg" xmlns:xlink="http://www.w3.org/1999/xlink" width="23" height="22">
	<path fill="#002A5A" transform="scale(0.0214753 0.0214844)" d="M535.5 949.808Q531.724 953.718 527.777 957.455Q523.829 961.192 519.719 964.749Q515.608 968.305 511.343 971.675Q507.077 975.045 502.665 978.22Q498.254 981.396 493.704 984.371Q489.154 987.346 484.476 990.115Q479.798 992.884 475.001 995.441Q470.204 997.998 465.297 1000.34Q460.39 1002.68 455.384 1004.8Q450.377 1006.92 445.281 1008.81Q440.184 1010.7 435.009 1012.36Q429.833 1014.03 424.588 1015.46Q419.342 1016.89 414.039 1018.08Q408.735 1019.27 403.383 1020.23Q398.031 1021.19 392.642 1021.9Q387.252 1022.62 381.836 1023.09Q376.42 1023.57 370.989 1023.8Q365.557 1024.03 360.12 1024.02Q354.684 1024.01 349.253 1023.75Q343.822 1023.5 338.408 1023Q332.994 1022.51 327.608 1021.77Q322.222 1021.03 316.874 1020.05Q311.526 1019.07 306.227 1017.86Q300.928 1016.64 295.689 1015.19Q290.45 1013.74 285.281 1012.05Q280.112 1010.37 275.024 1008.45Q269.935 1006.54 264.937 1004.4Q259.94 1002.26 255.043 999.902Q250.146 997.542 245.359 994.965Q240.572 992.388 235.906 989.6Q231.239 986.812 226.702 983.818Q222.165 980.823 217.766 977.63Q213.368 974.436 209.116 971.049Q204.865 967.661 200.769 964.088Q196.673 960.514 192.742 956.761Q188.81 953.007 185.05 949.082Q181.29 945.157 177.709 941.068Q174.129 936.978 170.735 932.733Q167.341 928.488 164.14 924.095Q160.939 919.702 157.938 915.171Q154.937 910.64 152.141 905.979Q149.346 901.318 146.761 896.536Q144.177 891.755 141.809 886.863Q139.442 881.971 137.295 876.979Q135.149 871.986 133.227 866.902Q131.306 861.818 129.615 856.654Q127.923 851.489 126.464 846.254Q125.004 841.019 123.781 835.724Q122.558 830.429 121.572 825.085Q120.587 819.74 119.841 814.357Q119.096 808.974 118.592 803.563Q118.088 798.152 117.827 792.724Q117.565 787.296 117.547 781.862Q117.529 776.427 117.754 770.997Q117.978 765.568 118.446 760.153Q118.913 754.739 119.622 749.351Q120.332 743.963 121.281 738.612Q122.23 733.262 123.418 727.958Q124.606 722.655 126.03 717.411Q127.454 712.166 129.111 706.99Q130.768 701.814 132.655 696.718Q134.541 691.621 136.654 686.614Q138.767 681.607 141.102 676.699Q143.437 671.791 145.989 666.993Q141.103 664.609 136.329 662.009Q131.555 659.409 126.902 656.599Q122.249 653.788 117.727 650.773Q113.204 647.757 108.821 644.542Q104.438 641.328 100.202 637.92Q95.9673 634.513 91.8888 630.92Q87.8103 627.327 83.8966 623.555Q79.9828 619.783 76.2416 615.84Q72.5005 611.898 68.9393 607.792Q65.3782 603.685 62.0043 599.424Q58.6304 595.163 55.4503 590.756Q52.2703 586.348 49.2906 581.803Q46.3109 577.258 43.5374 572.584Q40.7639 567.91 38.2021 563.117Q35.6404 558.324 33.2956 553.421Q30.9508 548.518 28.8276 543.516Q26.7043 538.513 24.807 533.42Q22.9096 528.328 21.2418 523.156Q19.574 517.984 18.1392 512.742Q16.7044 507.5 15.5055 502.2Q14.3065 496.9 13.3457 491.551Q12.385 486.202 11.6644 480.816Q10.9438 475.43 10.4648 470.017Q9.98574 464.604 9.74928 459.174Q9.5128 453.745 9.51935 448.311Q9.5259 442.877 9.77545 437.449Q10.025 432.02 10.5171 426.608Q11.0091 421.196 11.7427 415.812Q12.4763 410.427 13.4499 405.081Q14.4235 399.735 15.6353 394.437Q16.847 389.14 18.2945 383.901Q19.7419 378.663 21.4221 373.495Q23.1023 368.327 25.012 363.239Q26.9217 358.151 29.0569 353.154Q31.1922 348.156 33.5488 343.259Q35.9054 338.362 38.4787 333.575Q41.052 328.788 43.8367 324.121Q46.6215 319.454 49.6122 314.916Q52.6028 310.378 55.7935 305.978Q58.9841 301.578 62.3683 297.325Q65.7525 293.072 69.3235 288.974Q72.8945 284.877 76.6451 280.943Q80.3958 277.009 84.3186 273.247Q88.2415 269.485 92.3286 265.901Q96.4158 262.318 100.659 258.921Q104.902 255.524 109.293 252.32Q113.684 249.116 118.214 246.111Q122.744 243.106 127.404 240.307Q132.064 237.508 136.844 234.919Q141.624 232.331 146.515 229.959Q151.406 227.587 156.399 225.436Q161.391 223.284 166.475 221.358Q171.558 219.432 176.723 217.736Q181.888 216.039 187.123 214.574Q192.359 213.11 197.654 211.881Q202.95 210.651 208.295 209.66Q213.64 208.669 219.025 207.917Q224.409 207.166 229.822 206.656Q235.234 206.146 240.664 205.878Q246.094 205.61 251.53 205.585Q256.967 205.561 262.399 205.779Q267.831 205.997 273.248 206.457Q278.665 206.918 284.056 207.62Q289.447 208.322 294.801 209.264Q295.553 203.88 296.545 198.534Q297.537 193.188 298.768 187.893Q299.998 182.597 301.465 177.361Q302.931 172.126 304.63 166.961Q306.329 161.796 308.258 156.712Q310.186 151.629 312.341 146.637Q314.495 141.644 316.87 136.753Q319.246 131.862 321.838 127.083Q324.43 122.303 327.233 117.644Q330.036 112.985 333.045 108.456Q336.055 103.926 339.263 99.5365Q342.472 95.1465 345.874 90.9044Q349.276 86.6623 352.864 82.5766Q356.453 78.4909 360.221 74.5697Q363.988 70.6486 367.928 66.8999Q371.867 63.1511 375.971 59.5823Q380.074 56.0135 384.333 52.6318Q388.592 49.2501 392.998 46.0622Q397.404 42.8743 401.948 39.8866Q406.493 36.899 411.166 34.1175Q415.84 31.3361 420.633 28.7664Q425.426 26.1967 430.33 23.844Q435.233 21.4912 440.237 19.3601Q445.241 17.229 450.335 15.3238Q455.429 13.4186 460.604 11.7431Q465.778 10.0676 471.022 8.62516Q476.267 7.18275 481.57 5.97629Q486.874 4.76984 492.226 3.80176Q497.578 2.83369 502.969 2.10593Q508.359 1.37817 513.776 0.892192Q519.193 0.406209 524.627 0.162974Q530.061 -0.0802611 535.5 -0.0802611Q540.939 -0.0802608 546.373 0.162975Q551.807 0.40621 557.224 0.892193Q562.641 1.37818 568.032 2.10593Q573.422 2.83369 578.774 3.80177Q584.126 4.76984 589.43 5.9763Q594.733 7.18275 599.978 8.62517Q605.222 10.0676 610.396 11.7431Q615.571 13.4186 620.665 15.3238Q625.759 17.229 630.763 19.3601Q635.767 21.4912 640.671 23.844Q645.574 26.1967 650.367 28.7664Q655.161 31.3361 659.834 34.1175Q664.508 36.899 669.052 39.8866Q673.596 42.8743 678.002 46.0622Q682.408 49.2501 686.667 52.6318Q690.926 56.0135 695.029 59.5823Q699.133 63.1511 703.072 66.8999Q707.012 70.6486 710.779 74.5697Q714.547 78.4909 718.136 82.5766Q721.724 86.6623 725.126 90.9044Q728.528 95.1465 731.737 99.5365Q734.946 103.926 737.955 108.456Q740.964 112.985 743.767 117.644Q746.57 122.303 749.162 127.083Q751.755 131.862 754.13 136.753Q756.505 141.644 758.66 146.637Q760.814 151.629 762.742 156.712Q764.671 161.796 766.37 166.961Q768.069 172.126 769.535 177.361Q771.002 182.597 772.232 187.893Q773.463 193.188 774.455 198.534Q775.447 203.88 776.199 209.264Q781.556 208.314 786.95 207.604Q792.344 206.895 797.764 206.427Q803.185 205.959 808.621 205.734Q814.057 205.51 819.497 205.528Q824.938 205.547 830.372 205.808Q835.807 206.07 841.224 206.575Q846.641 207.079 852.03 207.826Q857.419 208.572 862.769 209.559Q868.12 210.545 873.421 211.77Q878.721 212.995 883.962 214.456Q889.203 215.917 894.373 217.61Q899.543 219.304 904.632 221.227Q909.721 223.15 914.719 225.299Q919.717 227.448 924.613 229.818Q929.51 232.188 934.296 234.775Q939.081 237.362 943.746 240.16Q948.411 242.959 952.947 245.963Q957.482 248.967 961.878 252.171Q966.274 255.375 970.523 258.772Q974.771 262.169 978.863 265.753Q982.955 269.337 986.883 273.1Q990.81 276.864 994.565 280.799Q998.32 284.734 1001.9 288.833Q1005.47 292.933 1008.86 297.188Q1012.25 301.443 1015.44 305.845Q1018.64 310.247 1021.63 314.788Q1024.62 319.329 1027.41 323.999Q1030.2 328.669 1032.78 333.459Q1035.35 338.249 1037.71 343.149Q1040.07 348.05 1042.21 353.051Q1044.34 358.052 1046.26 363.144Q1048.17 368.235 1049.85 373.408Q1051.53 378.58 1052.98 383.822Q1054.43 389.064 1055.64 394.365Q1056.85 399.667 1057.82 405.017Q1058.8 410.368 1059.53 415.757Q1060.26 421.145 1060.76 426.561Q1061.25 431.977 1061.5 437.41Q1061.74 442.843 1061.75 448.281Q1061.75 453.719 1061.52 459.152Q1061.28 464.585 1060.8 470.002Q1060.31 475.419 1059.59 480.809Q1058.87 486.199 1057.9 491.551Q1056.94 496.904 1055.74 502.208Q1054.53 507.511 1053.1 512.756Q1051.66 518.001 1049.98 523.176Q1048.31 528.351 1046.41 533.446Q1044.51 538.541 1042.38 543.546Q1040.25 548.551 1037.9 553.456Q1035.55 558.361 1032.98 563.155Q1030.42 567.95 1027.64 572.625Q1024.86 577.3 1021.87 581.847Q1018.89 586.393 1015.7 590.801Q1012.51 595.209 1009.13 599.47Q1005.75 603.731 1002.19 607.837Q998.618 611.943 994.87 615.885Q991.122 619.827 987.202 623.597Q983.281 627.368 979.195 630.959Q975.11 634.55 970.868 637.956Q966.626 641.361 962.235 644.573Q957.845 647.784 953.315 650.797Q948.786 653.809 944.126 656.616Q939.466 659.423 934.685 662.018Q929.904 664.614 925.011 666.993Q927.563 671.791 929.898 676.699Q932.233 681.607 934.346 686.614Q936.459 691.621 938.345 696.718Q940.232 701.814 941.889 706.99Q943.546 712.166 944.97 717.411Q946.394 722.655 947.582 727.959Q948.77 733.262 949.719 738.613Q950.668 743.963 951.378 749.351Q952.087 754.739 952.554 760.154Q953.021 765.568 953.246 770.998Q953.471 776.427 953.453 781.862Q953.435 787.296 953.173 792.724Q952.912 798.152 952.408 803.563Q951.904 808.974 951.159 814.357Q950.413 819.74 949.428 825.085Q948.442 830.429 947.219 835.724Q945.995 841.019 944.536 846.254Q943.077 851.489 941.385 856.654Q939.694 861.818 937.772 866.902Q935.851 871.986 933.705 876.979Q931.558 881.971 929.19 886.863Q926.823 891.755 924.239 896.537Q921.654 901.318 918.859 905.979Q916.063 910.64 913.062 915.171Q910.061 919.703 906.86 924.095Q903.659 928.488 900.265 932.733Q896.871 936.978 893.291 941.068Q889.71 945.157 885.95 949.082Q882.19 953.007 878.258 956.761Q874.327 960.514 870.231 964.088Q866.135 967.662 861.884 971.049Q857.632 974.436 853.234 977.63Q848.835 980.824 844.298 983.818Q839.76 986.812 835.094 989.6Q830.427 992.388 825.641 994.965Q820.854 997.542 815.957 999.902Q811.06 1002.26 806.062 1004.4Q801.065 1006.54 795.976 1008.46Q790.888 1010.37 785.719 1012.05Q780.55 1013.74 775.311 1015.19Q770.072 1016.64 764.773 1017.86Q759.474 1019.07 754.126 1020.05Q748.778 1021.03 743.392 1021.77Q738.006 1022.51 732.592 1023Q727.178 1023.5 721.747 1023.75Q716.316 1024.01 710.88 1024.02Q705.443 1024.03 700.011 1023.8Q694.579 1023.57 689.164 1023.09Q683.748 1022.62 678.358 1021.9Q672.969 1021.19 667.617 1020.23Q662.265 1019.27 656.961 1018.08Q651.657 1016.89 646.412 1015.46Q641.167 1014.03 635.991 1012.36Q630.815 1010.7 625.719 1008.81Q620.623 1006.92 615.616 1004.8Q610.61 1002.68 605.703 1000.34Q600.796 997.998 595.999 995.441Q591.202 992.884 586.524 990.115Q581.845 987.346 577.296 984.371Q572.746 981.396 568.335 978.22Q563.923 975.045 559.657 971.675Q555.392 968.305 551.281 964.749Q547.171 961.192 543.223 957.455Q539.276 953.718 535.5 949.808Z"/>
	<path fill="#002A5A" transform="scale(0.0214753 0.0214844)" d="M371.083 536.952Q371.083 532.917 371.281 528.888Q371.479 524.859 371.875 520.844Q372.271 516.829 372.863 512.838Q373.455 508.848 374.242 504.891Q375.03 500.934 376.01 497.021Q376.991 493.108 378.162 489.247Q379.334 485.387 380.693 481.588Q382.053 477.79 383.597 474.062Q385.142 470.335 386.867 466.688Q388.593 463.041 390.495 459.483Q392.398 455.925 394.473 452.465Q396.547 449.005 398.789 445.65Q401.032 442.296 403.436 439.055Q405.84 435.815 408.4 432.696Q410.96 429.578 413.671 426.588Q416.381 423.599 419.235 420.746Q422.088 417.894 425.079 415.184Q428.069 412.475 431.189 409.915Q434.308 407.356 437.55 404.953Q440.792 402.549 444.147 400.308Q447.503 398.066 450.964 395.992Q454.426 393.918 457.985 392.016Q461.545 390.114 465.193 388.389Q468.841 386.664 472.57 385.119Q476.299 383.575 480.099 382.216Q483.898 380.857 487.761 379.685Q491.623 378.514 495.538 377.533Q499.453 376.553 503.411 375.765Q507.369 374.978 511.361 374.386Q515.354 373.793 519.37 373.398Q523.387 373.002 527.418 372.804Q531.449 372.605 535.485 372.605Q539.521 372.605 543.552 372.802Q547.583 373 551.6 373.395Q555.616 373.79 559.609 374.381Q563.601 374.973 567.559 375.759Q571.518 376.546 575.433 377.526Q579.348 378.506 583.21 379.676Q587.073 380.847 590.873 382.206Q594.673 383.564 598.402 385.108Q602.131 386.651 605.78 388.376Q609.428 390.1 612.988 392.001Q616.548 393.903 620.01 395.976Q623.472 398.05 626.828 400.291Q630.184 402.532 633.426 404.934Q636.668 407.337 639.788 409.896Q642.908 412.455 645.899 415.164Q648.89 417.873 651.744 420.725Q654.598 423.577 657.309 426.566Q660.02 429.555 662.581 432.673Q665.142 435.791 667.546 439.031Q669.951 442.271 672.194 445.625Q674.437 448.979 676.512 452.439Q678.587 455.899 680.49 459.456Q682.394 463.014 684.12 466.661Q685.846 470.307 687.391 474.034Q688.936 477.761 690.296 481.559Q691.657 485.358 692.829 489.218Q694.001 493.078 694.982 496.991Q695.964 500.905 696.752 504.861Q697.54 508.818 698.133 512.808Q698.726 516.799 699.122 520.814Q699.518 524.828 699.717 528.858Q699.916 532.887 699.917 536.921Q699.917 540.956 699.72 544.985Q699.523 549.014 699.128 553.029Q698.733 557.044 698.142 561.035Q697.55 565.026 696.764 568.982Q695.977 572.939 694.997 576.853Q694.018 580.766 692.847 584.627Q691.676 588.488 690.317 592.287Q688.958 596.085 687.414 599.813Q685.871 603.54 684.146 607.188Q682.421 610.835 680.519 614.393Q678.617 617.952 676.543 621.412Q674.469 624.873 672.228 628.228Q669.986 631.583 667.583 634.824Q665.179 638.064 662.619 641.184Q660.06 644.303 657.35 647.292Q654.64 650.282 651.787 653.135Q648.934 655.989 645.944 658.699Q642.954 661.409 639.835 663.969Q636.716 666.529 633.475 668.933Q630.234 671.337 626.878 673.579Q623.523 675.821 620.062 677.896Q616.601 679.971 613.042 681.873Q609.483 683.776 605.835 685.502Q602.187 687.228 598.458 688.772Q594.73 690.317 590.93 691.677Q587.131 693.037 583.269 694.209Q579.407 695.381 575.492 696.363Q571.577 697.344 567.619 698.132Q563.661 698.92 559.669 699.513Q555.677 700.106 551.66 700.503Q547.644 700.899 543.613 701.098Q539.582 701.297 535.546 701.298Q531.511 701.292 527.481 701.088Q523.452 700.883 519.437 700.482Q515.422 700.081 511.432 699.484Q507.442 698.887 503.485 698.096Q499.529 697.304 495.616 696.32Q491.703 695.335 487.844 694.161Q483.984 692.986 480.186 691.624Q476.388 690.262 472.662 688.716Q468.935 687.17 465.289 685.443Q461.643 683.716 458.085 681.813Q454.528 679.91 451.068 677.835Q447.608 675.76 444.254 673.519Q440.9 671.277 437.66 668.874Q434.42 666.471 431.301 663.912Q428.182 661.353 425.193 658.645Q422.203 655.936 419.35 653.085Q416.496 650.234 413.786 647.246Q411.076 644.258 408.515 641.142Q405.954 638.025 403.549 634.787Q401.144 631.549 398.9 628.197Q396.657 624.844 394.58 621.387Q392.503 617.929 390.598 614.374Q388.693 610.818 386.965 607.174Q385.237 603.53 383.689 599.805Q382.141 596.081 380.777 592.285Q379.413 588.489 378.237 584.632Q377.061 580.774 376.075 576.863Q375.09 572.952 374.297 568.998Q373.504 565.043 372.905 561.055Q372.307 557.066 371.904 553.053Q371.502 549.04 371.297 545.013Q371.091 540.985 371.083 536.952Z"/>
</svg>
