<?xml version="1.0" encoding="utf-8" ?>
<svg xmlns="http://www.w3.org/2000/svg" xmlns:xlink="http://www.w3.org/1999/xlink" width="25" height="25">
	<path transform="scale(0.0240848 0.0244141)" d="M212.155 724.156Q211.881 724.156 211.607 724.145Q211.333 724.135 211.059 724.114Q210.786 724.093 210.513 724.062Q210.241 724.031 209.97 723.989Q209.699 723.948 209.429 723.896Q209.16 723.844 208.893 723.782Q208.625 723.72 208.361 723.648Q208.096 723.576 207.834 723.493Q207.573 723.411 207.314 723.319Q207.056 723.227 206.801 723.125Q206.546 723.023 206.296 722.912Q206.045 722.801 205.799 722.68Q205.553 722.559 205.311 722.429Q205.07 722.299 204.833 722.159Q204.597 722.02 204.366 721.872Q204.135 721.724 203.91 721.567Q203.685 721.41 203.466 721.245Q203.247 721.08 203.035 720.906Q202.822 720.733 202.617 720.551Q202.411 720.37 202.212 720.181Q202.013 719.992 201.822 719.795Q201.631 719.599 201.447 719.395Q201.263 719.192 201.087 718.981Q200.911 718.771 200.743 718.554Q200.576 718.336 200.416 718.113Q200.257 717.89 200.106 717.661Q199.955 717.432 199.813 717.197Q199.671 716.962 199.539 716.722Q199.406 716.482 199.282 716.237Q199.158 715.993 199.044 715.743Q198.93 715.494 198.825 715.24Q198.72 714.987 198.625 714.73Q198.53 714.472 198.445 714.212Q198.36 713.951 198.284 713.687Q198.209 713.423 198.144 713.157Q198.079 712.89 198.024 712.622Q197.969 712.353 197.924 712.082Q197.88 711.812 197.845 711.539Q197.811 711.267 197.787 710.994Q197.763 710.721 197.749 710.447Q197.736 710.173 197.733 709.899Q197.73 709.624 197.737 709.35Q197.744 709.076 197.762 708.802Q197.78 708.528 197.808 708.255Q197.836 707.983 197.874 707.711Q197.913 707.439 197.962 707.169Q198.01 706.9 198.069 706.632Q198.128 706.364 198.197 706.098Q198.266 705.833 198.346 705.57Q198.425 705.307 198.514 705.048Q198.603 704.789 198.702 704.533Q198.801 704.277 198.909 704.025Q199.018 703.773 199.136 703.526Q199.254 703.278 199.382 703.035Q199.509 702.792 199.645 702.554Q199.782 702.316 199.927 702.084Q200.073 701.851 200.227 701.624Q200.381 701.397 200.544 701.177Q200.707 700.956 200.878 700.741Q201.049 700.527 201.228 700.319Q201.407 700.111 201.594 699.91Q201.781 699.709 201.975 699.516Q202.169 699.322 202.371 699.136Q202.572 698.95 202.781 698.772L413.061 519.211Q413.33 518.981 413.611 518.764Q413.891 518.548 414.181 518.345Q414.471 518.142 414.771 517.954Q415.071 517.766 415.38 517.593Q415.689 517.42 416.006 517.262Q416.323 517.104 416.647 516.962Q416.971 516.82 417.302 516.694Q417.633 516.568 417.97 516.458Q418.306 516.348 418.648 516.255Q418.99 516.162 419.335 516.086Q419.681 516.01 420.03 515.951Q420.379 515.892 420.731 515.85Q421.083 515.808 421.436 515.784Q421.789 515.759 422.143 515.752Q422.497 515.745 422.851 515.755Q423.205 515.765 423.558 515.793Q423.911 515.82 424.262 515.865Q424.613 515.91 424.962 515.972Q425.31 516.034 425.656 516.113Q426.001 516.192 426.342 516.288Q426.682 516.384 427.018 516.496Q427.354 516.609 427.684 516.738Q428.014 516.866 428.337 517.011Q428.66 517.156 428.975 517.317Q429.291 517.477 429.598 517.653Q429.906 517.829 430.204 518.02Q430.502 518.21 430.791 518.415Q431.079 518.62 431.358 518.839Q431.636 519.058 431.903 519.291Q432.17 519.523 432.426 519.769Q432.681 520.014 432.924 520.271Q433.167 520.529 433.397 520.798Q433.627 521.067 433.844 521.347Q434.061 521.627 434.263 521.917Q434.466 522.208 434.654 522.508Q434.842 522.807 435.015 523.116Q435.189 523.425 435.347 523.742Q435.504 524.059 435.647 524.383Q435.789 524.708 435.915 525.038Q436.041 525.369 436.15 525.706Q436.26 526.043 436.353 526.384Q436.446 526.726 436.522 527.072Q436.598 527.417 436.657 527.767Q436.716 528.116 436.758 528.467Q436.8 528.819 436.825 529.172Q436.849 529.525 436.856 529.879Q436.864 530.233 436.853 530.587Q436.843 530.941 436.816 531.294Q436.788 531.647 436.743 531.998Q436.698 532.35 436.636 532.698Q436.574 533.047 436.495 533.392Q436.416 533.737 436.32 534.078Q436.225 534.419 436.112 534.754Q436 535.09 435.871 535.42Q435.742 535.75 435.597 536.073Q435.452 536.396 435.292 536.712Q435.131 537.027 434.955 537.334Q434.78 537.642 434.589 537.94Q434.398 538.239 434.193 538.527Q433.988 538.816 433.769 539.094Q433.55 539.372 433.318 539.639Q433.085 539.906 432.84 540.162Q432.595 540.417 432.337 540.66Q432.08 540.903 431.811 541.133L221.53 721.127Q221.034 721.513 220.506 721.854Q219.978 722.196 219.422 722.49Q218.866 722.784 218.287 723.029Q217.708 723.273 217.109 723.466Q216.511 723.66 215.898 723.8Q215.285 723.941 214.663 724.027Q214.04 724.114 213.412 724.146Q212.784 724.178 212.155 724.156ZM826.267 724.156Q825.629 724.156 824.993 724.099Q824.357 724.043 823.729 723.931Q823.101 723.818 822.485 723.651Q821.869 723.484 821.27 723.263Q820.672 723.042 820.095 722.768Q819.518 722.495 818.967 722.172Q818.417 721.849 817.897 721.479Q817.377 721.109 816.892 720.694L606.612 541.566Q606.338 541.336 606.076 541.092Q605.814 540.849 605.564 540.593Q605.314 540.337 605.077 540.069Q604.84 539.801 604.616 539.522Q604.393 539.242 604.183 538.952Q603.973 538.663 603.778 538.363Q603.583 538.063 603.403 537.754Q603.222 537.445 603.057 537.127Q602.892 536.81 602.743 536.485Q602.594 536.159 602.461 535.827Q602.328 535.495 602.212 535.157Q602.095 534.819 601.995 534.475Q601.895 534.132 601.812 533.784Q601.729 533.436 601.664 533.084Q601.598 532.732 601.55 532.378Q601.501 532.023 601.47 531.667Q601.439 531.31 601.426 530.953Q601.412 530.595 601.416 530.238Q601.42 529.88 601.442 529.523Q601.464 529.166 601.503 528.81Q601.542 528.454 601.598 528.101Q601.655 527.748 601.728 527.398Q601.802 527.048 601.893 526.701Q601.984 526.355 602.091 526.014Q602.199 525.673 602.323 525.338Q602.447 525.002 602.588 524.673Q602.728 524.344 602.885 524.022Q603.041 523.701 603.213 523.387Q603.385 523.073 603.573 522.768Q603.76 522.464 603.962 522.168Q604.164 521.873 604.38 521.588Q604.596 521.303 604.826 521.029Q605.056 520.755 605.299 520.492Q605.542 520.229 605.798 519.979Q606.054 519.729 606.321 519.491Q606.589 519.254 606.868 519.03Q607.147 518.806 607.436 518.596Q607.726 518.386 608.025 518.19Q608.325 517.994 608.633 517.813Q608.942 517.633 609.26 517.467Q609.577 517.302 609.902 517.152Q610.227 517.003 610.559 516.869Q610.891 516.736 611.229 516.619Q611.567 516.501 611.91 516.401Q612.253 516.301 612.601 516.217Q612.949 516.134 613.301 516.068Q613.652 516.001 614.007 515.952Q614.361 515.903 614.718 515.872Q615.074 515.84 615.432 515.826Q615.789 515.812 616.147 515.816Q616.505 515.819 616.862 515.84Q617.219 515.861 617.575 515.9Q617.93 515.938 618.284 515.994Q618.637 516.05 618.987 516.123Q619.337 516.196 619.684 516.287Q620.03 516.377 620.371 516.484Q620.713 516.591 621.048 516.715Q621.384 516.839 621.713 516.979Q622.042 517.119 622.364 517.275Q622.686 517.431 623 517.602Q623.314 517.774 623.619 517.961Q623.925 518.147 624.22 518.349Q624.516 518.55 624.801 518.766Q625.087 518.982 625.361 519.211L835.642 698.772Q835.85 698.95 836.052 699.136Q836.253 699.322 836.448 699.516Q836.642 699.709 836.829 699.91Q837.016 700.111 837.195 700.319Q837.374 700.527 837.545 700.741Q837.716 700.956 837.878 701.177Q838.041 701.397 838.195 701.624Q838.35 701.851 838.495 702.084Q838.641 702.316 838.777 702.554Q838.914 702.792 839.041 703.035Q839.168 703.278 839.286 703.525Q839.405 703.773 839.513 704.025Q839.622 704.277 839.721 704.533Q839.819 704.789 839.909 705.048Q839.998 705.307 840.077 705.57Q840.156 705.833 840.225 706.098Q840.294 706.364 840.353 706.631Q840.412 706.899 840.461 707.169Q840.51 707.439 840.548 707.711Q840.587 707.982 840.615 708.255Q840.643 708.528 840.661 708.802Q840.678 709.076 840.686 709.35Q840.693 709.624 840.69 709.898Q840.687 710.173 840.673 710.447Q840.66 710.721 840.636 710.994Q840.612 711.267 840.577 711.539Q840.543 711.811 840.498 712.082Q840.453 712.353 840.398 712.621Q840.344 712.89 840.278 713.157Q840.213 713.423 840.138 713.687Q840.063 713.951 839.978 714.211Q839.893 714.472 839.798 714.73Q839.703 714.987 839.598 715.24Q839.493 715.494 839.379 715.743Q839.264 715.993 839.141 716.237Q839.017 716.482 838.884 716.722Q838.751 716.962 838.609 717.197Q838.467 717.432 838.316 717.661Q838.166 717.89 838.006 718.113Q837.847 718.336 837.679 718.553Q837.511 718.771 837.335 718.981Q837.159 719.191 836.976 719.395Q836.792 719.599 836.6 719.795Q836.409 719.992 836.21 720.181Q836.012 720.37 835.806 720.551Q835.6 720.733 835.388 720.906Q835.175 721.08 834.956 721.245Q834.737 721.41 834.512 721.567Q834.287 721.724 834.056 721.872Q833.825 722.02 833.589 722.159Q833.353 722.298 833.111 722.429Q832.87 722.559 832.624 722.68Q832.377 722.801 832.127 722.912Q831.876 723.023 831.621 723.125Q831.367 723.227 831.108 723.319Q830.85 723.411 830.588 723.493Q830.326 723.576 830.062 723.648Q829.797 723.72 829.53 723.782Q829.263 723.844 828.993 723.896Q828.724 723.948 828.453 723.989Q828.182 724.031 827.909 724.062Q827.637 724.093 827.363 724.114Q827.09 724.135 826.815 724.145Q826.541 724.156 826.267 724.156ZM519.211 548.056Q518.188 548.058 517.164 548.035Q516.141 548.011 515.119 547.963Q514.096 547.914 513.075 547.84Q512.055 547.767 511.036 547.668Q510.017 547.569 509.001 547.445Q507.985 547.322 506.972 547.173Q505.96 547.024 504.951 546.85Q503.942 546.677 502.938 546.478Q501.934 546.28 500.935 546.057Q499.936 545.834 498.943 545.586Q497.95 545.339 496.963 545.067Q495.976 544.795 494.996 544.499Q494.017 544.203 493.044 543.883Q492.072 543.563 491.108 543.219Q490.144 542.875 489.189 542.508Q488.233 542.14 487.287 541.749Q486.341 541.358 485.405 540.944Q484.469 540.53 483.544 540.093Q482.618 539.657 481.704 539.197Q480.789 538.737 479.886 538.255Q478.983 537.774 478.092 537.27Q477.201 536.766 476.323 536.24Q475.445 535.714 474.58 535.167Q473.715 534.62 472.864 534.052Q472.012 533.483 471.175 532.894Q470.338 532.305 469.516 531.696Q468.694 531.086 467.887 530.457Q467.079 529.827 466.288 529.178Q465.497 528.529 464.722 527.86Q463.946 527.192 463.188 526.505Q462.43 525.818 461.688 525.112Q460.947 524.406 460.223 523.682L206.386 284.268L226.145 263.211L480.415 503.202Q481.363 504.151 482.358 505.052Q483.352 505.954 484.389 506.805Q485.427 507.656 486.504 508.456Q487.582 509.255 488.698 510Q489.814 510.746 490.965 511.436Q492.116 512.126 493.299 512.758Q494.483 513.391 495.696 513.965Q496.909 514.539 498.148 515.052Q499.388 515.566 500.652 516.018Q501.915 516.47 503.199 516.859Q504.483 517.249 505.785 517.575Q507.087 517.901 508.403 518.163Q509.719 518.425 511.046 518.621Q512.374 518.818 513.709 518.95Q515.045 519.081 516.385 519.147Q517.725 519.213 519.067 519.213Q520.409 519.213 521.749 519.147Q523.09 519.082 524.425 518.95Q525.76 518.818 527.088 518.622Q528.415 518.425 529.731 518.163Q531.047 517.901 532.349 517.575Q533.651 517.249 534.935 516.859Q536.219 516.47 537.482 516.018Q538.746 515.566 539.986 515.052Q541.225 514.539 542.438 513.965Q543.652 513.391 544.835 512.758Q546.018 512.126 547.169 511.436Q548.32 510.746 549.436 510Q550.552 509.255 551.63 508.456Q552.708 507.656 553.745 506.805Q554.782 505.954 555.776 505.052Q556.771 504.151 557.719 503.202L812.133 263.5L831.892 284.557L577.767 524.259Q577.046 524.971 576.307 525.666Q575.569 526.36 574.813 527.036Q574.058 527.712 573.286 528.369Q572.515 529.026 571.727 529.664Q570.94 530.302 570.137 530.92Q569.334 531.539 568.516 532.137Q567.698 532.736 566.865 533.314Q566.033 533.893 565.187 534.45Q564.34 535.008 563.48 535.544Q562.621 536.081 561.748 536.596Q560.875 537.112 559.99 537.606Q559.105 538.099 558.208 538.571Q557.311 539.043 556.402 539.493Q555.494 539.943 554.575 540.37Q553.656 540.797 552.727 541.202Q551.797 541.606 550.858 541.988Q549.919 542.37 548.971 542.728Q548.023 543.086 547.067 543.421Q546.11 543.756 545.146 544.068Q544.181 544.379 543.209 544.667Q542.237 544.954 541.259 545.218Q540.28 545.482 539.295 545.721Q538.31 545.961 537.32 546.176Q536.329 546.391 535.334 546.582Q534.339 546.773 533.339 546.94Q532.339 547.106 531.335 547.248Q530.332 547.389 529.325 547.506Q528.318 547.624 527.309 547.716Q526.299 547.808 525.288 547.876Q524.277 547.943 523.264 547.986Q522.252 548.028 521.238 548.046Q520.225 548.063 519.211 548.056Z"/>
	<path transform="scale(0.0240848 0.0244141)" d="M822.085 749.972L230.761 749.972Q229.344 749.972 227.93 749.902Q226.515 749.833 225.106 749.694Q223.697 749.555 222.296 749.347Q220.895 749.14 219.506 748.863Q218.117 748.587 216.743 748.243Q215.369 747.899 214.014 747.488Q212.659 747.077 211.325 746.599Q209.992 746.122 208.683 745.58Q207.375 745.038 206.095 744.433Q204.815 743.827 203.566 743.16Q202.317 742.492 201.102 741.764Q199.887 741.036 198.71 740.249Q197.532 739.462 196.395 738.619Q195.257 737.775 194.162 736.877Q193.068 735.978 192.018 735.027Q190.969 734.076 189.967 733.075Q188.966 732.073 188.015 731.024Q187.064 729.975 186.165 728.88Q185.267 727.785 184.423 726.648Q183.58 725.51 182.793 724.333Q182.006 723.155 181.278 721.94Q180.55 720.726 179.882 719.477Q179.215 718.228 178.609 716.947Q178.004 715.667 177.462 714.359Q176.92 713.05 176.443 711.717Q175.966 710.383 175.555 709.028Q175.143 707.673 174.799 706.299Q174.455 704.925 174.179 703.536Q173.903 702.147 173.695 700.747Q173.487 699.346 173.348 697.936Q173.209 696.527 173.14 695.112Q173.07 693.698 173.07 692.282L173.07 317.296Q173.07 315.88 173.14 314.465Q173.209 313.051 173.348 311.641Q173.487 310.232 173.695 308.831Q173.903 307.43 174.179 306.041Q174.455 304.652 174.799 303.278Q175.143 301.904 175.555 300.549Q175.966 299.194 176.443 297.861Q176.92 296.527 177.462 295.219Q178.004 293.91 178.609 292.63Q179.215 291.35 179.882 290.101Q180.55 288.852 181.278 287.637Q182.006 286.422 182.793 285.245Q183.58 284.067 184.423 282.93Q185.267 281.792 186.165 280.698Q187.064 279.603 188.015 278.553Q188.966 277.504 189.967 276.503Q190.969 275.501 192.018 274.55Q193.068 273.599 194.162 272.701Q195.257 271.802 196.395 270.959Q197.532 270.115 198.71 269.328Q199.887 268.541 201.102 267.813Q202.317 267.085 203.566 266.418Q204.815 265.75 206.095 265.145Q207.375 264.539 208.684 263.997Q209.992 263.455 211.325 262.978Q212.659 262.501 214.014 262.09Q215.369 261.679 216.743 261.335Q218.117 260.99 219.506 260.714Q220.895 260.438 222.296 260.23Q223.697 260.022 225.106 259.883Q226.515 259.745 227.93 259.675Q229.344 259.606 230.761 259.606L822.084 259.606Q823.501 259.606 824.915 259.675Q826.33 259.745 827.739 259.883Q829.148 260.022 830.549 260.23Q831.95 260.438 833.339 260.714Q834.728 260.99 836.102 261.335Q837.476 261.679 838.831 262.09Q840.186 262.501 841.52 262.978Q842.853 263.455 844.161 263.997Q845.47 264.539 846.75 265.144Q848.03 265.75 849.279 266.418Q850.528 267.085 851.743 267.813Q852.958 268.541 854.135 269.328Q855.313 270.115 856.45 270.959Q857.588 271.802 858.683 272.701Q859.777 273.599 860.827 274.55Q861.876 275.501 862.878 276.503Q863.879 277.504 864.83 278.553Q865.781 279.603 866.68 280.698Q867.578 281.792 868.422 282.93Q869.265 284.067 870.052 285.245Q870.839 286.422 871.567 287.637Q872.295 288.852 872.963 290.101Q873.63 291.35 874.236 292.63Q874.841 293.91 875.383 295.219Q875.925 296.527 876.402 297.861Q876.879 299.194 877.29 300.549Q877.702 301.904 878.046 303.278Q878.39 304.652 878.666 306.041Q878.942 307.43 879.15 308.831Q879.358 310.232 879.497 311.641Q879.636 313.051 879.705 314.465Q879.775 315.88 879.775 317.296L879.775 692.282Q879.775 693.698 879.705 695.112Q879.636 696.527 879.497 697.936Q879.358 699.346 879.15 700.747Q878.942 702.147 878.666 703.536Q878.39 704.925 878.046 706.299Q877.702 707.673 877.29 709.028Q876.879 710.383 876.402 711.717Q875.925 713.05 875.383 714.359Q874.841 715.667 874.236 716.947Q873.63 718.228 872.963 719.477Q872.295 720.726 871.567 721.94Q870.839 723.155 870.052 724.333Q869.265 725.51 868.422 726.648Q867.578 727.785 866.68 728.88Q865.781 729.975 864.83 731.024Q863.879 732.073 862.878 733.075Q861.876 734.076 860.827 735.027Q859.777 735.978 858.683 736.877Q857.588 737.775 856.45 738.619Q855.313 739.462 854.135 740.249Q852.958 741.036 851.743 741.764Q850.528 742.492 849.279 743.16Q848.03 743.827 846.75 744.433Q845.47 745.038 844.161 745.58Q842.853 746.122 841.52 746.599Q840.186 747.076 838.831 747.488Q837.476 747.899 836.102 748.243Q834.728 748.587 833.339 748.863Q831.95 749.14 830.549 749.347Q829.148 749.555 827.739 749.694Q826.33 749.833 824.915 749.902Q823.501 749.972 822.084 749.972L822.085 749.972ZM230.761 288.451Q230.052 288.451 229.345 288.485Q228.638 288.52 227.933 288.59Q227.229 288.659 226.528 288.763Q225.828 288.867 225.133 289.005Q224.439 289.143 223.752 289.315Q223.065 289.487 222.387 289.693Q221.71 289.898 221.043 290.137Q220.376 290.375 219.722 290.646Q219.068 290.917 218.428 291.22Q217.788 291.523 217.163 291.857Q216.539 292.19 215.931 292.555Q215.324 292.919 214.735 293.312Q214.146 293.705 213.578 294.127Q213.009 294.549 212.461 294.998Q211.914 295.447 211.389 295.923Q210.865 296.399 210.364 296.899Q209.863 297.4 209.388 297.925Q208.912 298.449 208.463 298.997Q208.014 299.544 207.592 300.113Q207.17 300.682 206.777 301.27Q206.383 301.859 206.019 302.466Q205.655 303.074 205.321 303.698Q204.988 304.323 204.685 304.963Q204.382 305.603 204.111 306.257Q203.84 306.911 203.602 307.578Q203.363 308.245 203.158 308.922Q202.952 309.6 202.78 310.287Q202.608 310.974 202.47 311.668Q202.332 312.363 202.228 313.063Q202.124 313.764 202.054 314.468Q201.985 315.173 201.95 315.88Q201.915 316.588 201.915 317.296L201.915 692.282Q201.915 692.99 201.95 693.697Q201.985 694.404 202.054 695.109Q202.124 695.814 202.228 696.514Q202.332 697.215 202.47 697.909Q202.608 698.604 202.78 699.29Q202.952 699.977 203.158 700.655Q203.363 701.333 203.602 701.999Q203.84 702.666 204.111 703.32Q204.382 703.974 204.685 704.614Q204.988 705.255 205.321 705.879Q205.655 706.504 206.019 707.111Q206.383 707.718 206.777 708.307Q207.17 708.896 207.592 709.465Q208.014 710.033 208.463 710.581Q208.912 711.128 209.388 711.653Q209.863 712.177 210.364 712.678Q210.865 713.179 211.389 713.654Q211.914 714.13 212.461 714.579Q213.009 715.028 213.578 715.45Q214.146 715.872 214.735 716.265Q215.324 716.659 215.931 717.023Q216.539 717.387 217.163 717.721Q217.788 718.055 218.428 718.357Q219.068 718.66 219.722 718.931Q220.376 719.202 221.043 719.44Q221.71 719.679 222.387 719.885Q223.065 720.09 223.752 720.262Q224.439 720.434 225.133 720.572Q225.828 720.711 226.528 720.815Q227.229 720.918 227.933 720.988Q228.638 721.057 229.345 721.092Q230.052 721.127 230.761 721.127L822.084 721.127Q822.793 721.127 823.5 721.092Q824.207 721.057 824.912 720.988Q825.616 720.918 826.317 720.815Q827.017 720.711 827.712 720.572Q828.406 720.434 829.093 720.262Q829.78 720.09 830.458 719.885Q831.135 719.679 831.802 719.441Q832.469 719.202 833.123 718.931Q833.777 718.66 834.417 718.357Q835.057 718.055 835.682 717.721Q836.306 717.387 836.914 717.023Q837.521 716.659 838.11 716.265Q838.699 715.872 839.267 715.45Q839.836 715.028 840.384 714.579Q840.931 714.13 841.456 713.654Q841.98 713.179 842.481 712.678Q842.982 712.177 843.457 711.653Q843.933 711.128 844.382 710.581Q844.831 710.033 845.253 709.465Q845.675 708.896 846.068 708.307Q846.462 707.718 846.826 707.111Q847.19 706.504 847.524 705.879Q847.857 705.255 848.16 704.615Q848.463 703.974 848.734 703.32Q849.005 702.666 849.243 701.999Q849.482 701.333 849.687 700.655Q849.893 699.977 850.065 699.29Q850.237 698.604 850.375 697.909Q850.513 697.215 850.617 696.514Q850.721 695.814 850.791 695.109Q850.86 694.404 850.895 693.697Q850.93 692.99 850.93 692.282L850.93 317.296Q850.93 316.588 850.895 315.88Q850.86 315.173 850.791 314.468Q850.721 313.764 850.617 313.063Q850.513 312.363 850.375 311.668Q850.237 310.974 850.065 310.287Q849.893 309.6 849.687 308.922Q849.482 308.245 849.243 307.578Q849.005 306.911 848.734 306.257Q848.463 305.603 848.16 304.963Q847.857 304.323 847.523 303.698Q847.19 303.074 846.826 302.466Q846.462 301.859 846.068 301.27Q845.675 300.682 845.253 300.113Q844.831 299.544 844.382 298.997Q843.933 298.449 843.457 297.925Q842.982 297.4 842.481 296.899Q841.98 296.399 841.456 295.923Q840.931 295.447 840.384 294.998Q839.836 294.549 839.267 294.127Q838.699 293.705 838.11 293.312Q837.521 292.919 836.914 292.555Q836.306 292.19 835.682 291.857Q835.057 291.523 834.417 291.22Q833.777 290.917 833.123 290.646Q832.469 290.375 831.802 290.137Q831.135 289.898 830.458 289.693Q829.78 289.487 829.093 289.315Q828.406 289.143 827.712 289.005Q827.017 288.867 826.317 288.763Q825.616 288.659 824.912 288.59Q824.207 288.52 823.5 288.485Q822.793 288.451 822.084 288.451L230.761 288.451Z"/>
</svg>
