<?xml version="1.0" encoding="utf-8" ?>
<svg xmlns="http://www.w3.org/2000/svg" xmlns:xlink="http://www.w3.org/1999/xlink" width="785" height="314">
	<path fill="#1C001A" transform="scale(0.306641 0.306641)" d="M35.4561 80.2706L35.4561 80.2706Q35.4561 78.3 35.5527 76.3319Q35.6494 74.3637 35.8426 72.4027Q36.0357 70.4416 36.3249 68.4924Q36.614 66.5432 36.9984 64.6105Q37.3829 62.6779 37.8617 60.7664Q38.3405 58.8549 38.9125 56.9692Q39.4845 55.0836 40.1483 53.2282Q40.8122 51.3729 41.5663 49.5523Q42.3204 47.7318 43.1629 45.9505Q44.0054 44.1691 44.9343 42.4313Q45.8632 40.6934 46.8763 39.0032Q47.8893 37.3131 48.9841 35.6746Q50.0788 34.0362 51.2527 32.4534Q52.4265 30.8707 53.6766 29.3475Q54.9267 27.8242 56.25 26.3641Q57.5734 24.9041 58.9668 23.5107Q60.3601 22.1173 61.8202 20.794Q63.2803 19.4707 64.8035 18.2206Q66.3268 16.9705 67.9095 15.7966Q69.4922 14.6228 71.1307 13.528Q72.7691 12.4333 74.4593 11.4202Q76.1495 10.4071 77.8873 9.47824Q79.6252 8.54934 81.4065 7.70683Q83.1879 6.86432 85.0084 6.11023Q86.8289 5.35614 88.6843 4.69229Q90.5396 4.02844 92.4253 3.45642Q94.311 2.88441 96.2224 2.40561Q98.1339 1.92681 100.067 1.54238Q101.999 1.15794 103.948 0.868807Q105.898 0.57967 107.859 0.386525Q109.82 0.193379 111.788 0.0966894Q113.756 0 115.727 0L1721.64 0Q1723.61 0 1725.58 0.0966894Q1727.54 0.193379 1729.51 0.386525Q1731.47 0.57967 1733.42 0.868807Q1735.37 1.15794 1737.3 1.54238Q1739.23 1.92681 1741.14 2.40561Q1743.05 2.88441 1744.94 3.45642Q1746.82 4.02844 1748.68 4.69229Q1750.54 5.35614 1752.36 6.11023Q1754.18 6.86432 1755.96 7.70683Q1757.74 8.54934 1759.48 9.47824Q1761.22 10.4071 1762.91 11.4202Q1764.6 12.4333 1766.23 13.528Q1767.87 14.6228 1769.46 15.7966Q1771.04 16.9705 1772.56 18.2206Q1774.08 19.4707 1775.54 20.794Q1777 22.1173 1778.4 23.5107Q1779.79 24.9041 1781.11 26.3641Q1782.44 27.8242 1783.69 29.3475Q1784.94 30.8707 1786.11 32.4534Q1787.29 34.0362 1788.38 35.6746Q1789.48 37.3131 1790.49 39.0032Q1791.5 40.6934 1792.43 42.4313Q1793.36 44.1691 1794.2 45.9505Q1795.04 47.7318 1795.8 49.5523Q1796.55 51.3729 1797.22 53.2282Q1797.88 55.0836 1798.45 56.9692Q1799.02 58.8549 1799.5 60.7664Q1799.98 62.6779 1800.37 64.6105Q1800.75 66.5432 1801.04 68.4924Q1801.33 70.4416 1801.52 72.4027Q1801.72 74.3637 1801.81 76.3319Q1801.91 78.3 1801.91 80.2706L1801.91 80.2706Q1801.91 82.2411 1801.81 84.2092Q1801.72 86.1774 1801.52 88.1384Q1801.33 90.0995 1801.04 92.0487Q1800.75 93.9979 1800.37 95.9305Q1799.98 97.8632 1799.5 99.7747Q1799.02 101.686 1798.45 103.572Q1797.88 105.458 1797.22 107.313Q1796.55 109.168 1795.8 110.989Q1795.04 112.809 1794.2 114.591Q1793.36 116.372 1792.43 118.11Q1791.5 119.848 1790.49 121.538Q1789.48 123.228 1788.38 124.866Q1787.29 126.505 1786.11 128.088Q1784.94 129.67 1783.69 131.194Q1782.44 132.717 1781.11 134.177Q1779.79 135.637 1778.4 137.03Q1777 138.424 1775.54 139.747Q1774.08 141.07 1772.56 142.321Q1771.04 143.571 1769.46 144.744Q1767.87 145.918 1766.23 147.013Q1764.6 148.108 1762.91 149.121Q1761.22 150.134 1759.48 151.063Q1757.74 151.992 1755.96 152.834Q1754.18 153.677 1752.36 154.431Q1750.54 155.185 1748.68 155.849Q1746.83 156.513 1744.94 157.085Q1743.05 157.657 1741.14 158.135Q1739.23 158.614 1737.3 158.999Q1735.37 159.383 1733.42 159.672Q1731.47 159.961 1729.51 160.155Q1727.54 160.348 1725.58 160.444Q1723.61 160.541 1721.64 160.541L115.727 160.541Q113.756 160.541 111.788 160.444Q109.82 160.348 107.859 160.155Q105.898 159.961 103.948 159.672Q101.999 159.383 100.067 158.999Q98.1339 158.614 96.2225 158.135Q94.311 157.657 92.4253 157.085Q90.5396 156.513 88.6843 155.849Q86.8289 155.185 85.0084 154.431Q83.1879 153.677 81.4065 152.834Q79.6252 151.992 77.8873 151.063Q76.1495 150.134 74.4593 149.121Q72.7691 148.108 71.1307 147.013Q69.4922 145.918 67.9095 144.744Q66.3268 143.571 64.8035 142.321Q63.2803 141.07 61.8202 139.747Q60.3601 138.424 58.9668 137.03Q57.5734 135.637 56.2501 134.177Q54.9267 132.717 53.6766 131.194Q52.4265 129.67 51.2527 128.088Q50.0788 126.505 48.9841 124.866Q47.8893 123.228 46.8763 121.538Q45.8632 119.848 44.9343 118.11Q44.0054 116.372 43.1629 114.591Q42.3204 112.809 41.5663 110.989Q40.8122 109.168 40.1483 107.313Q39.4845 105.458 38.9125 103.572Q38.3405 101.686 37.8617 99.7747Q37.3829 97.8632 36.9984 95.9306Q36.614 93.9979 36.3249 92.0487Q36.0357 90.0995 35.8426 88.1385Q35.6494 86.1774 35.5527 84.2092Q35.4561 82.2411 35.4561 80.2706Z"/>
	<path fill="#1C001A" transform="scale(0.306641 0.306641)" d="M758.091 943.73L758.091 943.73Q758.091 941.759 758.188 939.791Q758.285 937.823 758.478 935.862Q758.671 933.901 758.96 931.951Q759.249 930.002 759.634 928.069Q760.018 926.137 760.497 924.225Q760.976 922.314 761.548 920.428Q762.12 918.542 762.784 916.687Q763.447 914.832 764.201 913.011Q764.956 911.191 765.798 909.409Q766.641 907.628 767.569 905.89Q768.498 904.152 769.511 902.462Q770.525 900.772 771.619 899.133Q772.714 897.495 773.888 895.912Q775.062 894.33 776.312 892.806Q777.562 891.283 778.885 889.823Q780.209 888.363 781.602 886.97Q782.995 885.576 784.456 884.253Q785.916 882.93 787.439 881.68Q788.962 880.429 790.545 879.256Q792.127 878.082 793.766 876.987Q795.404 875.892 797.094 874.879Q798.785 873.866 800.523 872.937Q802.26 872.008 804.042 871.166Q805.823 870.323 807.644 869.569Q809.464 868.815 811.319 868.151Q813.175 867.487 815.061 866.915Q816.946 866.343 818.858 865.865Q820.769 865.386 822.702 865.001Q824.635 864.617 826.584 864.328Q828.533 864.039 830.494 863.846Q832.455 863.652 834.423 863.556Q836.391 863.459 838.362 863.459L2444.27 863.459Q2446.24 863.459 2448.21 863.556Q2450.18 863.652 2452.14 863.846Q2454.1 864.039 2456.05 864.328Q2458 864.617 2459.93 865.001Q2461.87 865.386 2463.78 865.865Q2465.69 866.343 2467.57 866.915Q2469.46 867.487 2471.32 868.151Q2473.17 868.815 2474.99 869.569Q2476.81 870.323 2478.59 871.166Q2480.37 872.008 2482.11 872.937Q2483.85 873.866 2485.54 874.879Q2487.23 875.892 2488.87 876.987Q2490.51 878.082 2492.09 879.256Q2493.67 880.429 2495.2 881.68Q2496.72 882.93 2498.18 884.253Q2499.64 885.576 2501.03 886.97Q2502.43 888.363 2503.75 889.823Q2505.07 891.283 2506.32 892.806Q2507.57 894.33 2508.75 895.912Q2509.92 897.495 2511.02 899.133Q2512.11 900.772 2513.12 902.462Q2514.14 904.152 2515.07 905.89Q2515.99 907.628 2516.84 909.409Q2517.68 911.191 2518.43 913.011Q2519.19 914.832 2519.85 916.687Q2520.52 918.542 2521.09 920.428Q2521.66 922.314 2522.14 924.225Q2522.62 926.137 2523 928.069Q2523.39 930.002 2523.68 931.951Q2523.96 933.901 2524.16 935.862Q2524.35 937.823 2524.45 939.791Q2524.54 941.759 2524.54 943.73L2524.54 943.73Q2524.54 945.7 2524.45 947.668Q2524.35 949.636 2524.16 951.597Q2523.96 953.558 2523.68 955.508Q2523.39 957.457 2523 959.39Q2522.62 961.322 2522.14 963.234Q2521.66 965.145 2521.09 967.031Q2520.52 968.917 2519.85 970.772Q2519.19 972.627 2518.43 974.448Q2517.68 976.268 2516.84 978.05Q2515.99 979.831 2515.07 981.569Q2514.14 983.307 2513.12 984.997Q2512.11 986.687 2511.02 988.325Q2509.92 989.964 2508.75 991.547Q2507.57 993.129 2506.32 994.653Q2505.07 996.176 2503.75 997.636Q2502.43 999.096 2501.03 1000.49Q2499.64 1001.88 2498.18 1003.21Q2496.72 1004.53 2495.2 1005.78Q2493.67 1007.03 2492.09 1008.2Q2490.51 1009.38 2488.87 1010.47Q2487.23 1011.57 2485.54 1012.58Q2483.85 1013.59 2482.11 1014.52Q2480.37 1015.45 2478.59 1016.29Q2476.81 1017.14 2474.99 1017.89Q2473.17 1018.64 2471.32 1019.31Q2469.46 1019.97 2467.57 1020.54Q2465.69 1021.12 2463.78 1021.59Q2461.87 1022.07 2459.93 1022.46Q2458 1022.84 2456.05 1023.13Q2454.1 1023.42 2452.14 1023.61Q2450.18 1023.81 2448.21 1023.9Q2446.24 1024 2444.27 1024L838.362 1024Q836.391 1024 834.423 1023.9Q832.455 1023.81 830.494 1023.61Q828.533 1023.42 826.584 1023.13Q824.635 1022.84 822.702 1022.46Q820.769 1022.07 818.858 1021.59Q816.946 1021.12 815.061 1020.54Q813.175 1019.97 811.319 1019.31Q809.464 1018.64 807.644 1017.89Q805.823 1017.14 804.042 1016.29Q802.26 1015.45 800.523 1014.52Q798.785 1013.59 797.094 1012.58Q795.404 1011.57 793.766 1010.47Q792.127 1009.38 790.545 1008.2Q788.962 1007.03 787.439 1005.78Q785.916 1004.53 784.455 1003.21Q782.995 1001.88 781.602 1000.49Q780.209 999.096 778.885 997.636Q777.562 996.176 776.312 994.653Q775.062 993.129 773.888 991.547Q772.714 989.964 771.619 988.325Q770.525 986.687 769.511 984.997Q768.498 983.307 767.57 981.569Q766.641 979.831 765.798 978.05Q764.956 976.268 764.201 974.448Q763.447 972.627 762.784 970.772Q762.12 968.917 761.548 967.031Q760.976 965.145 760.497 963.234Q760.018 961.322 759.634 959.39Q759.249 957.457 758.96 955.508Q758.671 953.558 758.478 951.597Q758.285 949.636 758.188 947.668Q758.091 945.7 758.091 943.73Z"/>
</svg>
