<?xml version="1.0" encoding="utf-8" ?>
<svg xmlns="http://www.w3.org/2000/svg" xmlns:xlink="http://www.w3.org/1999/xlink" width="23" height="23">
	<path fill="#1C001F" transform="scale(0.0224609 0.0224609)" d="M942.542 471.248Q942.542 666.441 804.523 804.465Q666.503 942.49 471.311 942.497Q276.118 942.504 138.089 804.489Q0.0596008 666.474 0.0456543 471.282Q0.0317993 276.089 138.041 138.055Q276.051 0.0208282 471.243 4.57764e-05Q666.456 -0.0209656 804.499 138.008Q942.543 276.036 942.542 471.248L942.542 471.248ZM851.171 471.248Q851.171 313.886 739.893 202.62Q628.615 91.3546 471.253 91.3715Q313.907 91.3883 202.657 202.659Q91.4059 313.929 91.4171 471.275Q91.4283 628.621 202.695 739.876Q313.961 851.131 471.307 851.125Q628.654 851.12 739.912 739.857Q851.171 628.594 851.171 471.248L851.171 471.248Z"/>
	<path fill="#1C001F" transform="scale(0.0224609 0.0224609)" d="M927.096 991.705L739.51 804.12Q738.717 803.326 737.964 802.495Q737.211 801.664 736.499 800.798Q735.788 799.931 735.12 799.03Q734.451 798.129 733.828 797.196Q733.205 796.264 732.629 795.302Q732.052 794.34 731.523 793.351Q730.995 792.362 730.515 791.348Q730.036 790.334 729.607 789.298Q729.177 788.262 728.8 787.206Q728.422 786.15 728.096 785.077Q727.771 784.003 727.498 782.915Q727.226 781.828 727.007 780.728Q726.788 779.628 726.623 778.518Q726.459 777.409 726.349 776.293Q726.239 775.177 726.184 774.056Q726.129 772.936 726.129 771.815Q726.129 770.693 726.184 769.573Q726.239 768.453 726.349 767.337Q726.459 766.221 726.623 765.111Q726.788 764.002 727.007 762.902Q727.226 761.802 727.498 760.714Q727.771 759.626 728.096 758.553Q728.422 757.48 728.8 756.424Q729.177 755.368 729.607 754.331Q730.036 753.295 730.515 752.281Q730.995 751.268 731.523 750.279Q732.052 749.289 732.629 748.328Q733.205 747.365 733.828 746.433Q734.451 745.5 735.12 744.6Q735.788 743.699 736.499 742.832Q737.211 741.965 737.964 741.134Q738.717 740.303 739.51 739.51Q740.303 738.717 741.134 737.964Q741.965 737.211 742.832 736.499Q743.699 735.788 744.6 735.12Q745.5 734.451 746.433 733.828Q747.366 733.205 748.328 732.629Q749.289 732.052 750.279 731.523Q751.268 730.995 752.281 730.515Q753.295 730.036 754.331 729.607Q755.368 729.177 756.424 728.8Q757.48 728.422 758.553 728.096Q759.626 727.771 760.714 727.498Q761.802 727.226 762.902 727.007Q764.002 726.788 765.111 726.623Q766.221 726.459 767.337 726.349Q768.453 726.239 769.573 726.184Q770.693 726.129 771.815 726.129Q772.936 726.129 774.056 726.184Q775.177 726.239 776.293 726.349Q777.409 726.459 778.518 726.623Q779.628 726.788 780.728 727.007Q781.828 727.226 782.915 727.498Q784.003 727.771 785.077 728.096Q786.15 728.422 787.206 728.8Q788.262 729.177 789.298 729.607Q790.334 730.036 791.348 730.515Q792.362 730.995 793.351 731.523Q794.34 732.052 795.302 732.629Q796.264 733.205 797.196 733.828Q798.129 734.451 799.03 735.12Q799.931 735.788 800.798 736.499Q801.664 737.211 802.495 737.964Q803.326 738.717 804.12 739.51L991.705 927.096Q992.498 927.889 993.251 928.72Q994.004 929.551 994.716 930.418Q995.427 931.285 996.095 932.185Q996.764 933.086 997.387 934.019Q998.01 934.951 998.586 935.913Q999.163 936.875 999.692 937.864Q1000.22 938.853 1000.7 939.867Q1001.18 940.881 1001.61 941.917Q1002.04 942.953 1002.42 944.009Q1002.79 945.065 1003.12 946.138Q1003.44 947.212 1003.72 948.3Q1003.99 949.387 1004.21 950.487Q1004.43 951.587 1004.59 952.697Q1004.76 953.806 1004.87 954.922Q1004.98 956.038 1005.03 957.159Q1005.09 958.279 1005.09 959.4Q1005.09 960.522 1005.03 961.642Q1004.98 962.762 1004.87 963.878Q1004.76 964.994 1004.59 966.104Q1004.43 967.213 1004.21 968.313Q1003.99 969.413 1003.72 970.501Q1003.44 971.589 1003.12 972.662Q1002.79 973.735 1002.42 974.791Q1002.04 975.847 1001.61 976.883Q1001.18 977.92 1000.7 978.933Q1000.22 979.947 999.692 980.936Q999.163 981.926 998.586 982.888Q998.01 983.849 997.387 984.782Q996.764 985.714 996.095 986.615Q995.427 987.516 994.716 988.383Q994.004 989.25 993.251 990.081Q992.498 990.912 991.705 991.705Q990.912 992.498 990.081 993.251Q989.25 994.004 988.383 994.716Q987.516 995.427 986.615 996.095Q985.714 996.764 984.782 997.387Q983.849 998.01 982.888 998.586Q981.926 999.163 980.937 999.692Q979.947 1000.22 978.934 1000.7Q977.92 1001.18 976.883 1001.61Q975.847 1002.04 974.791 1002.42Q973.735 1002.79 972.662 1003.12Q971.589 1003.44 970.501 1003.72Q969.413 1003.99 968.313 1004.21Q967.213 1004.43 966.104 1004.59Q964.995 1004.76 963.878 1004.87Q962.762 1004.98 961.642 1005.03Q960.522 1005.09 959.4 1005.09Q958.279 1005.09 957.159 1005.03Q956.039 1004.98 954.922 1004.87Q953.806 1004.76 952.697 1004.59Q951.587 1004.43 950.487 1004.21Q949.388 1003.99 948.3 1003.72Q947.212 1003.44 946.138 1003.12Q945.065 1002.79 944.009 1002.42Q942.953 1002.04 941.917 1001.61Q940.881 1001.18 939.867 1000.7Q938.853 1000.22 937.864 999.692Q936.875 999.163 935.913 998.586Q934.951 998.01 934.019 997.387Q933.086 996.764 932.185 996.095Q931.285 995.427 930.418 994.716Q929.551 994.004 928.72 993.251Q927.889 992.498 927.096 991.705Z"/>
</svg>
